<?xml version="1.0" encoding="UTF-8"?>
<svg id="Capa_2" data-name="Capa 2" xmlns="http://www.w3.org/2000/svg" viewBox="0 0 408.41 237.11">
  <defs>
    <style>
      .cls-1 {
        fill: #ffffff;
      }
    </style>
  </defs>
  <g id="Capa_3" data-name="Capa 3">
    <g>
      <path class="cls-1" d="m305.39,95.59c-9.84-8.26-33.65-28.24-43.23-36.28h-63.53l22.36,18.65-20.38,17.63h49.34l-25.73,21.58c-11.11,9.32-27.32,9.32-38.43,0l-37.28-31.29c-5.6-4.7-5.6-13.32,0-18.02l37.66-31.6h105.8L259.3,0h-71.39c-9.66,0-19,3.4-26.4,9.6-13.93,11.69-30.01,25.17-45.39,38.08-18.14,15.23-18.15,43.13,0,58.36,14.34,12.04,29.76,24.97,44.49,37.33,25.69,21.56,63.14,21.56,88.83,0,22.11-18.55,45.54-38.21,56.45-47.37l-.5-.42Z"/>
      <polygon class="cls-1" points="192.97 59.79 173.03 77.03 194.88 95.25 214.81 78.01 192.97 59.79"/>
    </g>
    <g>
      <path class="cls-1" d="m19.49,213.92h19.22v22.6h-20.61c-10.42,0-18.09-7.95-18.09-18.43s7.68-17.73,18.09-17.73h21.51l-6.02,9.41h-15.49c-5.03,0-8.84,3.68-8.84,8.81s3.68,8.65,8.84,8.65h11.36v-5.24h-15.53l5.57-8.05Z"/>
      <path class="cls-1" d="m56.75,236.51l5.61-9.3h7.54c1.8,0,3.91,0,5.34.11-.81-1.3-2.07-3.51-3.05-5.24l-5.39-9.57-14.1,24h-11l19.26-32.71c1.26-2.11,3.1-4.05,6.02-4.05s4.62,1.78,5.93,4.05l18.77,32.71h-34.93Z"/>
      <path class="cls-1" d="m115.74,213.81c2.65,5.57,3.82,8.27,4.85,10.81.99-2.54,2.16-5.19,4.8-10.76l4.8-10.27c1.08-2.32,2.69-3.84,5.12-3.84s4.4,1.62,5.21,4.97l7.59,31.79h-9.25l-2.83-12.6c-.94-4.11-1.57-7.03-2.07-9.95-.99,2.54-2.11,5.3-4.18,10l-4.04,9.08c-1.57,3.57-3.1,4.05-5.34,4.05s-3.77-.49-5.34-4.05l-4.04-9.14c-2.2-4.97-3.28-7.51-4.22-9.95-.45,2.87-1.12,5.89-2.02,9.95l-2.83,12.6h-9.11l7.77-31.79c.81-3.35,2.92-4.97,5.25-4.97s4,1.46,5.07,3.84l4.8,10.22Z"/>
      <path class="cls-1" d="m186.4,227.21l-5.97,9.3h-28.91v-36.17h34.8l-6.02,9.41h-19.44v4.32h23.8l-5.34,8.22h-18.45v4.92h25.55Z"/>
      <path class="cls-1" d="m206.96,214.73l-4.54,6.97h-15l4.53-6.97h15Z"/>
      <path class="cls-1" d="m238.26,214.78c7.32,0,11.27,3.3,11.27,9.89,0,7.41-3.73,11.84-12.89,11.84h-27.97l5.97-9.3h22.72c2.2,0,3.19-.76,3.19-2.65s-.99-2.59-3.19-2.59h-16.34c-7.72,0-11.27-4.16-11.27-10.38,0-6.81,3.77-11.24,12.89-11.24h32.86l-5.97,9.41h-27.61c-2.16,0-3.19.65-3.19,2.49s1.03,2.54,3.19,2.54h16.34Z"/>
      <path class="cls-1" d="m288.27,200.35l-6.02,9.41h-10.73v26.76h-9.29v-26.76h-14.1l6.02-9.41h34.12Z"/>
      <path class="cls-1" d="m294.33,236.51l5.61-9.3h7.54c1.8,0,3.91,0,5.34.11-.81-1.3-2.07-3.51-3.05-5.24l-5.39-9.57-14.1,24h-11l19.26-32.71c1.26-2.11,3.1-4.05,6.02-4.05s4.62,1.78,5.93,4.05l18.77,32.71h-34.93Z"/>
      <path class="cls-1" d="m370.47,236.51h-14.05l-9.07-9.51c-3.1-3.24-4.53-4.81-5.57-6.05.05,1.68.13,3.46.13,5.19v10.38h-9.34v-36.17h9.34v8.38c0,2.22-.09,4.43-.18,6.32,1.17-1.3,2.78-3.13,5.52-5.89l8.67-8.81h13.47l-11.49,10.38c-4,3.62-5.84,5.24-7.77,6.65,1.71,1.41,4.04,3.41,7.9,7.19l12.44,11.95Z"/>
      <path class="cls-1" d="m408.41,227.21l-5.97,9.3h-28.91v-36.17h34.8l-6.02,9.41h-19.44v4.32h23.8l-5.34,8.22h-18.45v4.92h25.55Z"/>
    </g>
  </g>
</svg>